<svg width="26" height="19" viewBox="0 0 26 19" fill="none" xmlns="http://www.w3.org/2000/svg">
<path d="M26 2.24911C25.0442 2.63116 24.0155 2.88887 22.9362 3.0042C24.0382 2.41095 24.8832 1.47125 25.2817 0.350252C24.2509 0.90031 23.1099 1.29945 21.8944 1.51491C20.9217 0.582804 19.5352 0 18.001 0C15.0554 0 12.6672 2.14755 12.6672 4.79675C12.6672 5.17215 12.7142 5.53807 12.8055 5.88974C8.37217 5.68946 4.44126 3.78016 1.81028 0.878003C1.35112 1.5861 1.08828 2.41 1.08828 3.2899C1.08828 4.95384 2.02984 6.42224 3.46118 7.28221C2.58717 7.25706 1.76437 7.04112 1.045 6.68185C1.04448 6.70178 1.04448 6.72219 1.04448 6.74259C1.04448 9.06622 2.88326 11.0045 5.32371 11.4458C4.87615 11.555 4.40485 11.6139 3.91823 11.6139C3.57412 11.6139 3.24004 11.584 2.9144 11.5275C3.59365 13.433 5.56332 14.8202 7.89716 14.8587C6.07158 16.1453 3.77204 16.9122 1.27248 16.9122C0.842336 16.9122 0.417474 16.8895 0 16.8449C2.36129 18.2065 5.16485 19 8.17689 19C17.9888 19 23.3537 11.6912 23.3537 5.3525C23.3537 5.14463 23.349 4.93723 23.3389 4.73125C24.3808 4.05638 25.2854 3.21112 26 2.24911Z" fill="#4A4947"/>
</svg>
