<svg width="32" height="23" viewBox="0 0 32 23" fill="none" xmlns="http://www.w3.org/2000/svg">
<path d="M31.3249 3.59082C31.1428 2.89617 30.7862 2.26282 30.2908 1.75414C29.7955 1.24547 29.1787 0.879324 28.5022 0.692347C26.0109 2.09833e-07 16 0 16 0C16 0 5.98911 2.09833e-07 3.49781 0.692347C2.82133 0.879324 2.20453 1.24547 1.70915 1.75414C1.21377 2.26282 0.857198 2.89617 0.675109 3.59082C0.209929 6.19975 -0.01581 8.84775 0.00085988 11.5C-0.01581 14.1522 0.209929 16.8003 0.675109 19.4092C0.857198 20.1038 1.21377 20.7372 1.70915 21.2459C2.20453 21.7545 2.82133 22.1207 3.49781 22.3077C5.98911 23 16 23 16 23C16 23 26.0109 23 28.5022 22.3077C29.1787 22.1207 29.7955 21.7545 30.2908 21.2459C30.7862 20.7372 31.1428 20.1038 31.3249 19.4092C31.7901 16.8003 32.0158 14.1522 31.9991 11.5C32.0158 8.84775 31.7901 6.19975 31.3249 3.59082ZM12.8002 16.4286V6.57143L21.1083 11.5L12.8002 16.4286Z" fill="#4A4947"/>
</svg>
