<svg width="24" height="23" viewBox="0 0 24 23" fill="none" xmlns="http://www.w3.org/2000/svg">
<path d="M11.8603 5.51807C8.61433 5.51807 5.9248 8.16116 5.9248 11.4534C5.9248 14.7457 8.56795 17.3888 11.8603 17.3888C15.1526 17.3888 17.7958 14.6994 17.7958 11.4534C17.7958 8.20753 15.1063 5.51807 11.8603 5.51807ZM11.8603 15.2558C9.7736 15.2558 8.05787 13.5401 8.05787 11.4534C8.05787 9.36679 9.7736 7.65109 11.8603 7.65109C13.947 7.65109 15.6627 9.36679 15.6627 11.4534C15.6627 13.5401 13.947 15.2558 11.8603 15.2558Z" fill="#4A4947"/>
<path d="M18.0279 6.72397C18.7705 6.72397 19.3726 6.12184 19.3726 5.37907C19.3726 4.63631 18.7705 4.03418 18.0279 4.03418C17.2852 4.03418 16.6831 4.63631 16.6831 5.37907C16.6831 6.12184 17.2852 6.72397 18.0279 6.72397Z" fill="#4A4947"/>
<path d="M21.5055 1.90121C20.2999 0.649193 18.5842 0 16.6366 0H7.08415C3.04987 0 0.360352 2.68952 0.360352 6.72379V16.2298C0.360352 18.2238 1.00955 19.9395 2.30793 21.1915C3.55995 22.3972 5.22931 23 7.13052 23H16.5902C18.5842 23 20.2535 22.3508 21.4592 21.1915C22.7112 19.9859 23.3604 18.2702 23.3604 16.2762V6.72379C23.3604 4.77621 22.7112 3.10685 21.5055 1.90121ZM21.3201 16.2762C21.3201 17.7137 20.81 18.873 19.9753 19.6613C19.1406 20.4496 17.9813 20.8669 16.5902 20.8669H7.13052C5.73939 20.8669 4.58012 20.4496 3.74544 19.6613C2.91076 18.8266 2.49342 17.6673 2.49342 16.2298V6.72379C2.49342 5.33266 2.91076 4.17339 3.74544 3.33871C4.53374 2.5504 5.73939 2.13306 7.13052 2.13306H16.683C18.0741 2.13306 19.2334 2.5504 20.068 3.38508C20.8563 4.21976 21.3201 5.37903 21.3201 6.72379V16.2762Z" fill="#4A4947"/>
</svg>
